<mxfile host="app.diagrams.net" agent="Mozilla/5.0 (Windows NT 10.0; Win64; x64) AppleWebKit/537.36 (KHTML, like Gecko) Chrome/131.0.0.0 Safari/537.36" version="24.8.6">
  <diagram name="Page-1" id="RphOcHhncc7LJiIo3DWP">
    <mxGraphModel grid="1" page="1" gridSize="10" guides="1" tooltips="1" connect="1" arrows="1" fold="1" pageScale="1" pageWidth="827" pageHeight="583" math="0" shadow="0">
      <root>
        <mxCell id="0" />
        <mxCell id="1" parent="0" />
        <mxCell id="IZOu7wQErDoGa-ieHS2d-44" value="Cont" style="rounded=1;whiteSpace=wrap;html=1;" vertex="1" parent="1">
          <mxGeometry x="-280" y="390" width="120" height="60" as="geometry" />
        </mxCell>
        <mxCell id="IZOu7wQErDoGa-ieHS2d-45" value="" style="rounded=1;whiteSpace=wrap;html=1;" vertex="1" parent="1">
          <mxGeometry x="-240" y="140" width="350" height="130" as="geometry" />
        </mxCell>
        <mxCell id="IZOu7wQErDoGa-ieHS2d-46" value="Adaugare/Stergere client" style="rounded=1;whiteSpace=wrap;html=1;" vertex="1" parent="1">
          <mxGeometry x="-210" y="180" width="120" height="60" as="geometry" />
        </mxCell>
        <mxCell id="IZOu7wQErDoGa-ieHS2d-48" value="Viziualizare Persoane" style="rounded=1;whiteSpace=wrap;html=1;" vertex="1" parent="1">
          <mxGeometry x="-60" y="180" width="120" height="60" as="geometry" />
        </mxCell>
        <mxCell id="IZOu7wQErDoGa-ieHS2d-49" value="Administrator" style="text;html=1;align=center;verticalAlign=middle;resizable=0;points=[];autosize=1;strokeColor=none;fillColor=none;" vertex="1" parent="1">
          <mxGeometry x="-170" y="330" width="90" height="30" as="geometry" />
        </mxCell>
        <mxCell id="IZOu7wQErDoGa-ieHS2d-51" value="" style="endArrow=classic;html=1;rounded=0;exitX=1;exitY=0.25;exitDx=0;exitDy=0;entryX=0.5;entryY=1;entryDx=0;entryDy=0;" edge="1" parent="1" source="IZOu7wQErDoGa-ieHS2d-44" target="IZOu7wQErDoGa-ieHS2d-45">
          <mxGeometry width="50" height="50" relative="1" as="geometry">
            <mxPoint x="390" y="610" as="sourcePoint" />
            <mxPoint x="440" y="560" as="targetPoint" />
            <Array as="points">
              <mxPoint x="-65" y="405" />
            </Array>
          </mxGeometry>
        </mxCell>
        <mxCell id="IZOu7wQErDoGa-ieHS2d-54" value="" style="rounded=1;whiteSpace=wrap;html=1;" vertex="1" parent="1">
          <mxGeometry x="-150" y="660" width="490" height="470" as="geometry" />
        </mxCell>
        <mxCell id="IZOu7wQErDoGa-ieHS2d-55" value="Email / Nr.Telefon" style="rounded=1;whiteSpace=wrap;html=1;" vertex="1" parent="1">
          <mxGeometry x="-100" y="710" width="120" height="65" as="geometry" />
        </mxCell>
        <mxCell id="IZOu7wQErDoGa-ieHS2d-57" value="Logare" style="text;html=1;align=center;verticalAlign=middle;resizable=0;points=[];autosize=1;strokeColor=none;fillColor=none;" vertex="1" parent="1">
          <mxGeometry x="-70" y="680" width="60" height="30" as="geometry" />
        </mxCell>
        <mxCell id="IZOu7wQErDoGa-ieHS2d-59" value="Recuperare/Modificare Parola" style="rounded=1;whiteSpace=wrap;html=1;" vertex="1" parent="1">
          <mxGeometry x="60" y="710" width="130" height="65" as="geometry" />
        </mxCell>
        <mxCell id="IZOu7wQErDoGa-ieHS2d-60" value="" style="endArrow=classic;html=1;rounded=0;exitX=0.75;exitY=1;exitDx=0;exitDy=0;entryX=0.25;entryY=0;entryDx=0;entryDy=0;" edge="1" parent="1" source="IZOu7wQErDoGa-ieHS2d-44" target="IZOu7wQErDoGa-ieHS2d-54">
          <mxGeometry width="50" height="50" relative="1" as="geometry">
            <mxPoint x="390" y="930" as="sourcePoint" />
            <mxPoint x="440" y="880" as="targetPoint" />
            <Array as="points" />
          </mxGeometry>
        </mxCell>
        <mxCell id="IZOu7wQErDoGa-ieHS2d-61" value="Interfata" style="text;html=1;align=center;verticalAlign=middle;resizable=0;points=[];autosize=1;strokeColor=none;fillColor=none;" vertex="1" parent="1">
          <mxGeometry x="80" y="620" width="70" height="30" as="geometry" />
        </mxCell>
        <mxCell id="IZOu7wQErDoGa-ieHS2d-62" value="" style="rounded=1;whiteSpace=wrap;html=1;" vertex="1" parent="1">
          <mxGeometry x="-110" y="830" width="440" height="130" as="geometry" />
        </mxCell>
        <mxCell id="IZOu7wQErDoGa-ieHS2d-63" value="Carti" style="text;html=1;align=center;verticalAlign=middle;resizable=0;points=[];autosize=1;strokeColor=none;fillColor=none;" vertex="1" parent="1">
          <mxGeometry x="90" y="800" width="50" height="30" as="geometry" />
        </mxCell>
        <mxCell id="IZOu7wQErDoGa-ieHS2d-64" value="Viziualizare" style="rounded=1;whiteSpace=wrap;html=1;" vertex="1" parent="1">
          <mxGeometry x="-100" y="840" width="110" height="50" as="geometry" />
        </mxCell>
        <mxCell id="IZOu7wQErDoGa-ieHS2d-66" value="Donar&lt;span style=&quot;color: rgba(0, 0, 0, 0); font-family: monospace; font-size: 0px; text-align: start; text-wrap-mode: nowrap;&quot;&gt;%3CmxGraphModel%3E%3Croot%3E%3CmxCell%20id%3D%220%22%2F%3E%3CmxCell%20id%3D%221%22%20parent%3D%220%22%2F%3E%3CmxCell%20id%3D%222%22%20value%3D%22Viziualizare%22%20style%3D%22rounded%3D1%3BwhiteSpace%3Dwrap%3Bhtml%3D1%3B%22%20vertex%3D%221%22%20parent%3D%221%22%3E%3CmxGeometry%20y%3D%22700%22%20width%3D%22110%22%20height%3D%2250%22%20as%3D%22geometry%22%2F%3E%3C%2FmxCell%3E%3C%2Froot%3E%3C%2FmxGraphModel%3E&lt;/span&gt;e" style="rounded=1;whiteSpace=wrap;html=1;" vertex="1" parent="1">
          <mxGeometry x="30" y="840" width="110" height="50" as="geometry" />
        </mxCell>
        <mxCell id="IZOu7wQErDoGa-ieHS2d-67" value="Rezervare" style="rounded=1;whiteSpace=wrap;html=1;" vertex="1" parent="1">
          <mxGeometry x="160" y="840" width="110" height="50" as="geometry" />
        </mxCell>
        <mxCell id="IZOu7wQErDoGa-ieHS2d-68" value="Sugestii" style="rounded=1;whiteSpace=wrap;html=1;" vertex="1" parent="1">
          <mxGeometry x="-100" y="900" width="110" height="50" as="geometry" />
        </mxCell>
        <mxCell id="IZOu7wQErDoGa-ieHS2d-69" value="Prelungire termen inchiriere" style="rounded=1;whiteSpace=wrap;html=1;" vertex="1" parent="1">
          <mxGeometry x="30" y="900" width="110" height="50" as="geometry" />
        </mxCell>
        <mxCell id="IZOu7wQErDoGa-ieHS2d-71" value="" style="rounded=1;whiteSpace=wrap;html=1;" vertex="1" parent="1">
          <mxGeometry x="-115" y="1010" width="435" height="90" as="geometry" />
        </mxCell>
        <mxCell id="IZOu7wQErDoGa-ieHS2d-72" value="Cititori" style="text;html=1;align=center;verticalAlign=middle;resizable=0;points=[];autosize=1;strokeColor=none;fillColor=none;" vertex="1" parent="1">
          <mxGeometry x="80" y="980" width="60" height="30" as="geometry" />
        </mxCell>
        <mxCell id="IZOu7wQErDoGa-ieHS2d-73" value="Istoric inchirieri" style="rounded=1;whiteSpace=wrap;html=1;" vertex="1" parent="1">
          <mxGeometry x="-105" y="1020" width="120" height="60" as="geometry" />
        </mxCell>
        <mxCell id="IZOu7wQErDoGa-ieHS2d-74" value="Stoc" style="rounded=1;whiteSpace=wrap;html=1;" vertex="1" parent="1">
          <mxGeometry x="20" y="1020" width="120" height="60" as="geometry" />
        </mxCell>
        <mxCell id="IZOu7wQErDoGa-ieHS2d-75" value="Termen predare carte" style="rounded=1;whiteSpace=wrap;html=1;" vertex="1" parent="1">
          <mxGeometry x="150" y="1020" width="120" height="60" as="geometry" />
        </mxCell>
        <mxCell id="IZOu7wQErDoGa-ieHS2d-77" value="" style="rounded=1;whiteSpace=wrap;html=1;" vertex="1" parent="1">
          <mxGeometry x="400" y="120" width="700" height="260" as="geometry" />
        </mxCell>
        <mxCell id="IZOu7wQErDoGa-ieHS2d-78" value="" style="rounded=1;whiteSpace=wrap;html=1;" vertex="1" parent="1">
          <mxGeometry x="440" y="170" width="280" height="110" as="geometry" />
        </mxCell>
        <mxCell id="IZOu7wQErDoGa-ieHS2d-79" value="Cont Utilizator" style="text;html=1;align=center;verticalAlign=middle;resizable=0;points=[];autosize=1;strokeColor=none;fillColor=none;" vertex="1" parent="1">
          <mxGeometry x="550" y="140" width="100" height="30" as="geometry" />
        </mxCell>
        <mxCell id="IZOu7wQErDoGa-ieHS2d-80" value="Nume si prenume" style="rounded=1;whiteSpace=wrap;html=1;" vertex="1" parent="1">
          <mxGeometry x="450" y="180" width="80" height="40" as="geometry" />
        </mxCell>
        <mxCell id="IZOu7wQErDoGa-ieHS2d-81" value="Adresa email" style="rounded=1;whiteSpace=wrap;html=1;" vertex="1" parent="1">
          <mxGeometry x="540" y="180" width="80" height="40" as="geometry" />
        </mxCell>
        <mxCell id="IZOu7wQErDoGa-ieHS2d-83" value="Cod buletin biblioteca" style="rounded=1;whiteSpace=wrap;html=1;" vertex="1" parent="1">
          <mxGeometry x="630" y="180" width="80" height="40" as="geometry" />
        </mxCell>
        <mxCell id="IZOu7wQErDoGa-ieHS2d-85" value="Parola" style="rounded=1;whiteSpace=wrap;html=1;" vertex="1" parent="1">
          <mxGeometry x="450" y="230" width="80" height="40" as="geometry" />
        </mxCell>
        <mxCell id="IZOu7wQErDoGa-ieHS2d-86" value="" style="rounded=1;whiteSpace=wrap;html=1;" vertex="1" parent="1">
          <mxGeometry x="780" y="170" width="280" height="110" as="geometry" />
        </mxCell>
        <mxCell id="IZOu7wQErDoGa-ieHS2d-87" value="Carti" style="text;html=1;align=center;verticalAlign=middle;resizable=0;points=[];autosize=1;strokeColor=none;fillColor=none;" vertex="1" parent="1">
          <mxGeometry x="895" y="140" width="50" height="30" as="geometry" />
        </mxCell>
        <mxCell id="IZOu7wQErDoGa-ieHS2d-89" value="Autori&amp;nbsp;" style="rounded=1;whiteSpace=wrap;html=1;" vertex="1" parent="1">
          <mxGeometry x="790" y="180" width="80" height="40" as="geometry" />
        </mxCell>
        <mxCell id="IZOu7wQErDoGa-ieHS2d-90" value="Titlu" style="rounded=1;whiteSpace=wrap;html=1;" vertex="1" parent="1">
          <mxGeometry x="880" y="180" width="80" height="40" as="geometry" />
        </mxCell>
        <mxCell id="IZOu7wQErDoGa-ieHS2d-91" value="An publicatre" style="rounded=1;whiteSpace=wrap;html=1;" vertex="1" parent="1">
          <mxGeometry x="970" y="180" width="80" height="40" as="geometry" />
        </mxCell>
        <mxCell id="IZOu7wQErDoGa-ieHS2d-92" value="ISSN/ISBN" style="rounded=1;whiteSpace=wrap;html=1;" vertex="1" parent="1">
          <mxGeometry x="790" y="230" width="80" height="40" as="geometry" />
        </mxCell>
        <mxCell id="IZOu7wQErDoGa-ieHS2d-93" value="Inventar" style="rounded=1;whiteSpace=wrap;html=1;" vertex="1" parent="1">
          <mxGeometry x="880" y="230" width="80" height="40" as="geometry" />
        </mxCell>
        <mxCell id="IZOu7wQErDoGa-ieHS2d-94" value="" style="endArrow=classic;html=1;rounded=0;exitX=1;exitY=0.5;exitDx=0;exitDy=0;entryX=0;entryY=0.25;entryDx=0;entryDy=0;" edge="1" parent="1" source="IZOu7wQErDoGa-ieHS2d-45" target="IZOu7wQErDoGa-ieHS2d-77">
          <mxGeometry width="50" height="50" relative="1" as="geometry">
            <mxPoint x="390" y="630" as="sourcePoint" />
            <mxPoint x="440" y="580" as="targetPoint" />
          </mxGeometry>
        </mxCell>
        <mxCell id="IZOu7wQErDoGa-ieHS2d-95" value="Contine" style="text;html=1;align=center;verticalAlign=middle;resizable=0;points=[];autosize=1;strokeColor=none;fillColor=none;" vertex="1" parent="1">
          <mxGeometry x="220" y="160" width="60" height="30" as="geometry" />
        </mxCell>
        <mxCell id="IZOu7wQErDoGa-ieHS2d-97" value="" style="rounded=1;whiteSpace=wrap;html=1;" vertex="1" parent="1">
          <mxGeometry x="30" y="340" width="270" height="80" as="geometry" />
        </mxCell>
        <mxCell id="IZOu7wQErDoGa-ieHS2d-98" value="Bibliotecar" style="text;html=1;align=center;verticalAlign=middle;resizable=0;points=[];autosize=1;strokeColor=none;fillColor=none;" vertex="1" parent="1">
          <mxGeometry x="-60" y="380" width="80" height="30" as="geometry" />
        </mxCell>
        <mxCell id="IZOu7wQErDoGa-ieHS2d-99" value="" style="endArrow=classic;html=1;rounded=0;exitX=1;exitY=0.5;exitDx=0;exitDy=0;entryX=0;entryY=0.5;entryDx=0;entryDy=0;" edge="1" parent="1" source="IZOu7wQErDoGa-ieHS2d-44" target="IZOu7wQErDoGa-ieHS2d-97">
          <mxGeometry width="50" height="50" relative="1" as="geometry">
            <mxPoint x="390" y="630" as="sourcePoint" />
            <mxPoint x="440" y="580" as="targetPoint" />
            <Array as="points">
              <mxPoint y="420" />
            </Array>
          </mxGeometry>
        </mxCell>
        <mxCell id="IZOu7wQErDoGa-ieHS2d-100" value="Notificari termen predare carte" style="rounded=1;whiteSpace=wrap;html=1;" vertex="1" parent="1">
          <mxGeometry x="40" y="360" width="100" height="40" as="geometry" />
        </mxCell>
        <mxCell id="IZOu7wQErDoGa-ieHS2d-102" value="Gestionare carti" style="rounded=1;whiteSpace=wrap;html=1;" vertex="1" parent="1">
          <mxGeometry x="150" y="360" width="100" height="40" as="geometry" />
        </mxCell>
        <mxCell id="IZOu7wQErDoGa-ieHS2d-108" value="" style="endArrow=classic;html=1;rounded=0;exitX=0.25;exitY=1;exitDx=0;exitDy=0;entryX=1;entryY=0.75;entryDx=0;entryDy=0;" edge="1" parent="1" source="IZOu7wQErDoGa-ieHS2d-77" target="IZOu7wQErDoGa-ieHS2d-44">
          <mxGeometry width="50" height="50" relative="1" as="geometry">
            <mxPoint x="390" y="630" as="sourcePoint" />
            <mxPoint x="440" y="580" as="targetPoint" />
            <Array as="points">
              <mxPoint x="220" y="540" />
            </Array>
          </mxGeometry>
        </mxCell>
        <mxCell id="IZOu7wQErDoGa-ieHS2d-109" value="Cititor" style="text;html=1;align=center;verticalAlign=middle;resizable=0;points=[];autosize=1;strokeColor=none;fillColor=none;" vertex="1" parent="1">
          <mxGeometry x="200" y="500" width="50" height="30" as="geometry" />
        </mxCell>
        <mxCell id="IZOu7wQErDoGa-ieHS2d-111" value="Contine" style="text;html=1;align=center;verticalAlign=middle;resizable=0;points=[];autosize=1;strokeColor=none;fillColor=none;" vertex="1" parent="1">
          <mxGeometry x="310" y="310" width="60" height="30" as="geometry" />
        </mxCell>
        <mxCell id="IZOu7wQErDoGa-ieHS2d-112" value="" style="endArrow=classic;html=1;rounded=0;exitX=1;exitY=0.5;exitDx=0;exitDy=0;entryX=0;entryY=0.75;entryDx=0;entryDy=0;" edge="1" parent="1" source="IZOu7wQErDoGa-ieHS2d-97" target="IZOu7wQErDoGa-ieHS2d-77">
          <mxGeometry width="50" height="50" relative="1" as="geometry">
            <mxPoint x="390" y="630" as="sourcePoint" />
            <mxPoint x="440" y="580" as="targetPoint" />
          </mxGeometry>
        </mxCell>
      </root>
    </mxGraphModel>
  </diagram>
</mxfile>
